<?xml version="1.0" encoding="UTF-8" standalone="no"?>
<!-- Created with Inkscape (http://www.inkscape.org/) -->

<svg
   xmlns:dc="http://purl.org/dc/elements/1.1/"
   xmlns:cc="http://creativecommons.org/ns#"
   xmlns:rdf="http://www.w3.org/1999/02/22-rdf-syntax-ns#"
   xmlns:svg="http://www.w3.org/2000/svg"
   xmlns="http://www.w3.org/2000/svg"
   xmlns:xlink="http://www.w3.org/1999/xlink"
   xmlns:sodipodi="http://sodipodi.sourceforge.net/DTD/sodipodi-0.dtd"
   xmlns:inkscape="http://www.inkscape.org/namespaces/inkscape"
   width="512"
   height="512"
   viewBox="0 0 135.46666 135.46666"
   version="1.1"
   id="svg4166"
   inkscape:version="0.92.3 (2405546, 2018-03-11)"
   sodipodi:docname="mqttgateway-logo.svg">
  <defs
     id="defs4160">
    <linearGradient
       inkscape:collect="always"
       xlink:href="#linearGradient6689"
       id="linearGradient7659"
       gradientUnits="userSpaceOnUse"
       gradientTransform="translate(9.4488188)"
       x1="304.88855"
       y1="875.07172"
       x2="305.06131"
       y2="934.13947" />
    <linearGradient
       id="linearGradient6689">
      <stop
         id="stop6691"
         offset="0"
         style="stop-color:#3c0f51;stop-opacity:1;" />
      <stop
         id="stop6693"
         offset="1"
         style="stop-color:#bea1c7;stop-opacity:1" />
    </linearGradient>
    <linearGradient
       inkscape:collect="always"
       xlink:href="#linearGradient6689"
       id="linearGradient7651"
       gradientUnits="userSpaceOnUse"
       gradientTransform="translate(0.02411184,0.25472182)"
       x1="304.88855"
       y1="875.07172"
       x2="305.06131"
       y2="934.13947" />
    <linearGradient
       inkscape:collect="always"
       xlink:href="#linearGradient6689"
       id="linearGradient7653"
       gradientUnits="userSpaceOnUse"
       gradientTransform="translate(-11.43837)"
       x1="304.88855"
       y1="875.07172"
       x2="305.06131"
       y2="934.13947" />
    <linearGradient
       inkscape:collect="always"
       xlink:href="#linearGradient6689"
       id="linearGradient7655"
       gradientUnits="userSpaceOnUse"
       gradientTransform="translate(-15.004476)"
       x1="304.88855"
       y1="875.07172"
       x2="305.06131"
       y2="934.13947" />
    <linearGradient
       inkscape:collect="always"
       xlink:href="#linearGradient6115"
       id="linearGradient6779"
       gradientUnits="userSpaceOnUse"
       x1="319.97763"
       y1="808.27496"
       x2="339.08478"
       y2="788.62958" />
    <linearGradient
       inkscape:collect="always"
       id="linearGradient6115">
      <stop
         style="stop-color:#ffffff;stop-opacity:1;"
         offset="0"
         id="stop6117" />
      <stop
         style="stop-color:#ffffff;stop-opacity:0;"
         offset="1"
         id="stop6119" />
    </linearGradient>
    <clipPath
       clipPathUnits="userSpaceOnUse"
       id="clipPath6326">
      <rect
         y="791.35187"
         x="278.5925"
         height="58.107494"
         width="62.466568"
         id="rect6328"
         style="fill:none;stroke:#e3d7eb;stroke-width:1.52146721;stroke-linecap:round;stroke-linejoin:round;stroke-miterlimit:4;stroke-dasharray:none;stroke-opacity:1"
         ry="7.6814556" />
    </clipPath>
    <filter
       style="color-interpolation-filters:sRGB"
       inkscape:collect="always"
       id="filter6654">
      <feGaussianBlur
         inkscape:collect="always"
         stdDeviation="0.44943121"
         id="feGaussianBlur6656" />
    </filter>
    <linearGradient
       inkscape:collect="always"
       xlink:href="#linearGradient5880"
       id="linearGradient6781"
       gradientUnits="userSpaceOnUse"
       x1="295.99268"
       y1="827.12994"
       x2="345.26871"
       y2="785.75183" />
    <linearGradient
       id="linearGradient5880">
      <stop
         id="stop5882"
         offset="0"
         style="stop-color:#8d89c2;stop-opacity:1;" />
      <stop
         id="stop5884"
         offset="1"
         style="stop-color:#fffff9;stop-opacity:0.98275864;" />
    </linearGradient>
    <clipPath
       clipPathUnits="userSpaceOnUse"
       id="clipPath6322">
      <rect
         y="791.17957"
         x="282.07071"
         height="53.395973"
         width="54.940025"
         id="rect6324"
         style="fill:none;stroke:#e3d7eb;stroke-width:1.36779618;stroke-linecap:round;stroke-linejoin:round;stroke-miterlimit:4;stroke-dasharray:none;stroke-opacity:1"
         ry="7.0586214" />
    </clipPath>
    <filter
       style="color-interpolation-filters:sRGB"
       inkscape:collect="always"
       id="filter6650">
      <feGaussianBlur
         inkscape:collect="always"
         stdDeviation="0.40403781"
         id="feGaussianBlur6652" />
    </filter>
    <linearGradient
       inkscape:collect="always"
       xlink:href="#linearGradient5880"
       id="linearGradient6783"
       gradientUnits="userSpaceOnUse"
       x1="113.76343"
       y1="496.37268"
       x2="104.47091"
       y2="486.98941" />
    <clipPath
       clipPathUnits="userSpaceOnUse"
       id="clipPath6318">
      <rect
         y="-113.34922"
         x="478.40646"
         height="17.485321"
         width="17.856434"
         id="rect6320"
         style="fill:none;stroke:#e3d7eb;stroke-width:0.44622806;stroke-linecap:round;stroke-linejoin:round;stroke-miterlimit:4;stroke-dasharray:none;stroke-opacity:1"
         ry="2.3114526"
         transform="rotate(90)" />
    </clipPath>
    <filter
       style="color-interpolation-filters:sRGB"
       inkscape:collect="always"
       id="filter6646">
      <feGaussianBlur
         inkscape:collect="always"
         stdDeviation="0.13181277"
         id="feGaussianBlur6648" />
    </filter>
    <linearGradient
       inkscape:collect="always"
       xlink:href="#linearGradient5880"
       id="linearGradient6785"
       gradientUnits="userSpaceOnUse"
       x1="113.11773"
       y1="495.98373"
       x2="102.37865"
       y2="484.34698" />
    <clipPath
       clipPathUnits="userSpaceOnUse"
       id="clipPath6314">
      <rect
         y="-117.26899"
         x="478.37479"
         height="20.530216"
         width="22.017618"
         id="rect6316"
         style="fill:none;stroke:#e3d7eb;stroke-width:0.53691387;stroke-linecap:round;stroke-linejoin:round;stroke-miterlimit:4;stroke-dasharray:none;stroke-opacity:1"
         ry="2.713969"
         transform="rotate(90)" />
    </clipPath>
    <filter
       style="color-interpolation-filters:sRGB"
       inkscape:collect="always"
       id="filter6642">
      <feGaussianBlur
         inkscape:collect="always"
         stdDeviation="0.15860075"
         id="feGaussianBlur6644" />
    </filter>
    <linearGradient
       inkscape:collect="always"
       xlink:href="#linearGradient5880"
       id="linearGradient6787"
       gradientUnits="userSpaceOnUse"
       x1="113.11026"
       y1="496.12561"
       x2="101.53288"
       y2="483.0538" />
    <clipPath
       clipPathUnits="userSpaceOnUse"
       id="clipPath6310">
      <rect
         y="-124.21733"
         x="478.77695"
         height="28.463694"
         width="30.025959"
         id="rect6312"
         style="fill:none;stroke:#e3d7eb;stroke-width:0.73827261;stroke-linecap:round;stroke-linejoin:round;stroke-miterlimit:4;stroke-dasharray:none;stroke-opacity:1"
         ry="3.7627263"
         transform="rotate(90)" />
    </clipPath>
    <filter
       style="color-interpolation-filters:sRGB"
       inkscape:collect="always"
       id="filter6638">
      <feGaussianBlur
         inkscape:collect="always"
         stdDeviation="0.21808078"
         id="feGaussianBlur6640" />
    </filter>
    <linearGradient
       inkscape:collect="always"
       xlink:href="#linearGradient5028"
       id="linearGradient6789"
       gradientUnits="userSpaceOnUse"
       x1="110.44128"
       y1="493.23328"
       x2="96.310234"
       y2="479.09653" />
    <linearGradient
       id="linearGradient5028">
      <stop
         style="stop-color:#6f1171;stop-opacity:1"
         offset="0"
         id="stop5030" />
      <stop
         style="stop-color:#bea1c7;stop-opacity:1"
         offset="1"
         id="stop5032" />
    </linearGradient>
    <clipPath
       clipPathUnits="userSpaceOnUse"
       id="clipPath6306">
      <rect
         y="-135.25798"
         x="479.47021"
         height="38.737633"
         width="40.160423"
         id="rect6308"
         style="fill:none;stroke:#e3d7eb;stroke-width:0.99606657;stroke-linecap:round;stroke-linejoin:round;stroke-miterlimit:4;stroke-dasharray:none;stroke-opacity:1"
         ry="5.1208782"
         transform="rotate(90)" />
    </clipPath>
    <filter
       style="color-interpolation-filters:sRGB"
       inkscape:collect="always"
       id="filter6634">
      <feGaussianBlur
         inkscape:collect="always"
         stdDeviation="0.2942314"
         id="feGaussianBlur6636" />
    </filter>
    <linearGradient
       inkscape:collect="always"
       xlink:href="#linearGradient6689"
       id="linearGradient4422"
       gradientUnits="userSpaceOnUse"
       gradientTransform="translate(9.4488188)"
       x1="304.88855"
       y1="875.07172"
       x2="305.06131"
       y2="934.13947" />
  </defs>
  <sodipodi:namedview
     id="base"
     pagecolor="#ffffff"
     bordercolor="#666666"
     borderopacity="1.0"
     inkscape:pageopacity="0.0"
     inkscape:pageshadow="2"
     inkscape:zoom="0.7"
     inkscape:cx="247.46485"
     inkscape:cy="487.23294"
     inkscape:document-units="px"
     inkscape:current-layer="layer1"
     showgrid="false"
     units="px"
     inkscape:window-width="1920"
     inkscape:window-height="1147"
     inkscape:window-x="-8"
     inkscape:window-y="-8"
     inkscape:window-maximized="1" />
  <metadata
     id="metadata4163">
    <rdf:RDF>
      <cc:Work
         rdf:about="">
        <dc:format>image/svg+xml</dc:format>
        <dc:type
           rdf:resource="http://purl.org/dc/dcmitype/StillImage" />
        <dc:title></dc:title>
      </cc:Work>
    </rdf:RDF>
  </metadata>
  <g
     inkscape:label="Ebene 1"
     inkscape:groupmode="layer"
     id="layer1"
     transform="translate(0,-161.53334)">
    <g
       id="g6666"
       transform="matrix(2.1847095,0,0,2.1847095,-608.29937,-1556.0058)"
       inkscape:export-filename="/home/andyp/Desktop/text6731.png"
       inkscape:export-xdpi="80"
       inkscape:export-ydpi="80">
      <rect
         transform="matrix(0.95890403,0,0,1.0136364,13.01705,-14.016446)"
         clip-path="url(#clipPath6326)"
         y="791.44348"
         x="278.02335"
         height="58.327999"
         width="58.215397"
         id="rect5036"
         style="fill:url(#linearGradient6779);fill-opacity:1;stroke:none;filter:url(#filter6654)" />
      <rect
         transform="matrix(1.0902697,0,0,1.103077,-27.372632,-84.605378)"
         style="fill:url(#linearGradient6781);fill-opacity:1;stroke:none;filter:url(#filter6650)"
         id="rect6113"
         width="58.215397"
         height="58.327999"
         x="278.02335"
         y="791.44348"
         clip-path="url(#clipPath6322)" />
      <path
         clip-path="url(#clipPath6318)"
         sodipodi:type="arc"
         style="fill:url(#linearGradient6783);fill-opacity:1;stroke:#807ead;stroke-width:0.65446782;stroke-linejoin:round;stroke-miterlimit:4;stroke-dasharray:none;stroke-opacity:1;filter:url(#filter6646)"
         id="path5872"
         sodipodi:cx="95.123322"
         sodipodi:cy="477.94135"
         sodipodi:rx="23.0602"
         sodipodi:ry="23.0602"
         d="m 118.18352,477.94135 a 23.0602,23.0602 0 0 1 -22.9986,23.06011 l -0.0616,-23.06011 z"
         transform="matrix(0,-3.3685323,3.3545022,0,-1324.655,1169.9471)"
         sodipodi:start="0"
         sodipodi:end="1.5681251" />
      <path
         clip-path="url(#clipPath6314)"
         sodipodi:type="arc"
         style="fill:url(#linearGradient6785);fill-opacity:1;stroke:#807ead;stroke-width:0.78747362;stroke-linejoin:round;stroke-miterlimit:4;stroke-dasharray:none;stroke-opacity:1;filter:url(#filter6642)"
         id="path5876"
         sodipodi:cx="95.123322"
         sodipodi:cy="477.94135"
         sodipodi:rx="23.0602"
         sodipodi:ry="23.0602"
         d="m 118.18352,477.94135 a 23.0602,23.0602 0 0 1 -22.9986,23.06011 l -0.0616,-23.06011 z"
         transform="matrix(0,-2.8689359,2.7205234,0,-1021.2693,1124.5638)"
         sodipodi:start="0"
         sodipodi:end="1.5681251" />
      <path
         clip-path="url(#clipPath6310)"
         sodipodi:end="1.5681251"
         sodipodi:start="0"
         transform="matrix(0,-2.0692983,1.9949219,0,-674.9621,1045.1693)"
         d="m 118.18352,477.94135 a 23.0602,23.0602 0 0 1 -22.9986,23.06011 l -0.0616,-23.06011 z"
         sodipodi:ry="23.0602"
         sodipodi:rx="23.0602"
         sodipodi:cy="477.94135"
         sodipodi:cx="95.123322"
         id="path5026"
         style="fill:url(#linearGradient6787);fill-opacity:1;stroke:#807ead;stroke-width:1.08279979;stroke-linejoin:round;stroke-miterlimit:4;stroke-dasharray:none;stroke-opacity:1;filter:url(#filter6638)"
         sodipodi:type="arc" />
      <path
         clip-path="url(#clipPath6306)"
         sodipodi:type="arc"
         style="fill:url(#linearGradient6789);fill-opacity:1;stroke:none;filter:url(#filter6634)"
         id="path5849"
         sodipodi:cx="95.123322"
         sodipodi:cy="477.94135"
         sodipodi:rx="23.0602"
         sodipodi:ry="23.0602"
         d="m 118.18352,477.94135 a 23.0602,23.0602 0 0 1 -22.9986,23.06011 l -0.0616,-23.06011 z"
         transform="matrix(0,-1.5204819,1.4915043,0,-434.97136,993.7839)"
         sodipodi:start="0"
         sodipodi:end="1.5681251" />
      <rect
         ry="7.7862029"
         style="fill:none;stroke:#e3d7eb;stroke-width:1.5;stroke-linecap:round;stroke-linejoin:round;stroke-miterlimit:4;stroke-dasharray:none;stroke-opacity:1"
         id="rect6215-8"
         width="59.899445"
         height="58.899872"
         x="279.61899"
         y="787.71521" />
    </g>
    <g
       style="color:#000000;font-style:normal;font-variant:normal;font-weight:bold;font-stretch:normal;font-size:78px;line-height:125%;font-family:Arial;-inkscape-font-specification:'Arial Bold';text-indent:0;text-align:start;text-decoration:none;text-decoration-line:none;letter-spacing:0px;word-spacing:0px;text-transform:none;writing-mode:lr-tb;direction:ltr;baseline-shift:baseline;text-anchor:start;display:inline;overflow:visible;visibility:visible;fill:url(#linearGradient7659);fill-opacity:1;fill-rule:nonzero;stroke:none;stroke-width:1px;marker:none;enable-background:accumulate"
       id="text6660"
       transform="matrix(0.62438409,0,0,0.62438409,-118.25443,-355.00916)">
      <path
         d="m 202.64563,914.35846 v -55.83398 h 16.87207 l 10.13086,38.08593 10.0166,-38.08593 h 16.91016 v 55.83398 h -10.47364 v -43.95117 l -11.083,43.95117 h -10.8545 l -11.04492,-43.95117 v 43.95117 h -10.47363"
         style="fill:url(#linearGradient4422);stroke:none;marker:none"
         id="path7641"
         inkscape:connector-curvature="0" />
      <path
         d="m 303.36545,907.5292 c 2.76753,1.98047 5.77631,3.55469 9.02637,4.72265 l -4.15137,7.95996 c -1.70122,-0.50782 -3.36431,-1.20606 -4.98926,-2.09472 -0.35552,-0.17774 -2.85649,-1.82813 -7.50293,-4.95118 -3.65629,1.59961 -7.70609,2.39942 -12.14941,2.39942 -8.58205,0 -15.31056,-2.52637 -20.18555,-7.5791 -4.84961,-5.05273 -7.27441,-12.1494 -7.27441,-21.29004 0,-9.1152 2.43749,-16.19918 7.3125,-21.25196 4.87498,-5.07807 11.48923,-7.61713 19.84277,-7.61718 8.27731,5e-5 14.84078,2.53911 19.69043,7.61718 4.84956,5.05278 7.27436,12.13676 7.27442,21.25196 -6e-5,4.82424 -0.67291,9.06447 -2.01856,12.7207 -1.01568,2.79298 -2.64068,5.49708 -4.875,8.11231 m -9.06445,-6.36036 c 1.44722,-1.70115 2.52632,-3.75779 3.2373,-6.16992 0.73629,-2.41209 1.10445,-5.17966 1.10449,-8.30273 -4e-5,-6.44919 -1.42191,-11.26071 -4.26562,-14.43457 -2.84379,-3.19918 -6.56351,-4.79878 -11.15918,-4.79883 -4.59573,5e-5 -8.32815,1.59965 -11.19727,4.79883 -2.84376,3.19925 -4.26564,8.01077 -4.26562,14.43457 -2e-5,6.52541 1.42186,11.4131 4.26562,14.66308 2.86912,3.22462 6.48728,4.83693 10.8545,4.83692 1.62497,10e-6 3.1611,-0.2666 4.6084,-0.79981 -2.28519,-1.49803 -4.60843,-2.666 -6.96973,-3.5039 l 3.16113,-6.43653 c 3.707,1.26955 7.24899,3.17385 10.62598,5.71289"
         style="fill:url(#linearGradient7651);stroke:none;marker:none"
         id="path7643"
         inkscape:connector-curvature="0" />
      <path
         d="m 320.16274,914.35846 v -46.38867 h -16.56739 v -9.44531 h 44.37012 v 9.44531 h -16.5293 v 46.38867 h -11.27343"
         style="fill:url(#linearGradient7653);stroke:none;marker:none"
         id="path7645"
         inkscape:connector-curvature="0" />
      <path
         d="m 364.28023,914.35846 v -46.38867 h -16.56738 v -9.44531 h 44.37011 v 9.44531 h -16.52929 v 46.38867 h -11.27344"
         style="fill:url(#linearGradient7655);stroke:none;marker:none"
         id="path7647"
         inkscape:connector-curvature="0" />
    </g>
    <g
       id="g4119"
       transform="matrix(0.10490585,0,0,0.10490585,65.888428,272.70046)">
      <path
         d="m -372.6483,-237.08625 c -1.01655,0.42802 -2.46111,1.12355 -3.21015,1.60507 -0.69553,0.53503 -41.19689,40.82238 -89.99114,89.56312 -97.58848,97.588492 -89.88413,89.295611 -89.83063,96.464942 0,5.29675 1.65858,9.20242 5.67126,13.16161 1.81909,1.81908 4.65472,3.90568 6.4738,4.81522 2.88913,1.39106 3.74517,1.55157 8.56039,1.55157 4.01269,0 5.72476,-0.21401 6.95532,-0.90954 0.90954,-0.48152 36.64919,-35.953661 79.45116,-78.755622 42.80197,-42.85548 77.84608,-77.89959 77.84608,-77.89959 0,0 26.00219,26.0022 57.78265,57.72916 31.72696,31.780461 57.88967,57.675651 58.15718,57.515141 0.21401,-0.1605 0.42802,-1.17705 0.42802,-2.2471 0,-1.81908 0.53502,-2.51462 6.04578,-8.02537 4.4942,-4.49421 6.36679,-5.99227 7.38334,-5.99227 0.74903,0 1.92608,-0.58853 2.62162,-1.33757 0.74903,-0.74903 1.87258,-1.33756 2.67512,-1.33756 0.80254,0 1.92609,-0.53502 2.67512,-1.33756 0.96305,-1.01655 1.81909,-1.33756 4.17319,-1.44457 3.53117,-0.214 4.38721,-1.07004 3.37066,-3.47766 -0.58853,-1.49806 -133.38163,-134.344681 -137.0733,-137.180311 -3.63817,-2.78213 -6.95532,-3.58466 -10.16547,-2.46111 z"
         id="path3416"
         inkscape:connector-curvature="0"
         style="fill:#6dac20;fill-opacity:1;stroke:none;stroke-width:0.05350246" />
      <path
         d="m -439.31237,-92.148079 -69.17868,69.178681 v 62.758381 62.704887 l 1.28406,2.03309 c 1.60507,2.56812 2.88913,3.63817 5.13623,4.49421 2.72863,1.01654 255.74177,0.74903 255.74177,-0.26751 0,-0.37452 -1.81909,-2.46112 -4.01269,-4.65472 -3.04964,-3.04964 -4.01268,-4.333695 -4.01268,-5.457245 0,-0.90954 -0.53503,-1.97959 -1.39107,-2.78213 -1.33756,-1.23055 -1.44456,-1.49807 -1.17705,-5.35024 0.32101,-4.49421 -0.21401,-5.51076 -2.46111,-4.92223 -1.07005,0.26751 -2.0331,-0.48152 -6.15279,-4.65471 -3.74517,-3.79868 -4.86872,-5.24324 -4.86872,-6.4203 0,-0.85604 -0.53502,-1.92609 -1.33756,-2.62162 -1.28406,-1.12355 -1.33756,-1.39106 -1.33756,-8.025372 0,-6.68781 0,-6.84831 1.33756,-7.70435 1.07005,-0.69553 1.33756,-1.33756 1.33756,-2.94264 0,-1.17705 -0.21401,-2.08659 -0.53502,-2.08659 -0.26752,0 -1.60508,-1.12356 -2.88914,-2.46112 -2.03309,-2.03309 -2.35411,-2.72862 -2.08659,-3.95918 0.21401,-1.23056 0,-1.65858 -1.12355,-2.40761 -1.23056,-0.80254 -1.39107,-1.28406 -1.39107,-3.79867 0,-2.40761 -0.21401,-3.10315 -1.33756,-4.06619 -1.33756,-1.12355 -1.33756,-1.28406 -1.33756,-9.25593 v -8.078871 l 2.67512,-2.62162 c 1.87259,-1.87258 2.67512,-3.04964 2.67512,-4.06619 0,-1.7120702 1.23056,-2.8356302 2.62162,-2.4611102 1.12356,0.26751 2.72863,-0.48152 2.72863,-1.28406 0,-0.32101 -1.81908,-2.3006 -4.06619,-4.3872 l -4.06618,-3.85218 v -10.6469898 -10.59348 l 2.72862,-2.78213 c 1.76558,-1.81908 2.72863,-3.21015 2.72863,-4.06619 0,-0.96304 1.49807,-2.83563 5.29674,-6.68781 l 5.29674,-5.35024 0.21401,-6.5273 0.21401,-6.5273 -53.28845,-53.288452 c -29.26584,-29.26585 -53.60946,-53.23495 -54.03748,-53.23495 -0.42802,0 -31.88747,31.13843 -69.92772,69.125181 z m 32.10148,40.233851 c 1.92609,0.16051 3.95918,0.53502 4.49421,0.80254 0.53502,0.26751 2.08659,0.96304 3.47766,1.49806 1.44456,0.53503 2.56811,1.12356 2.56811,1.33757 0,0.26751 0.32102,0.42802 0.69554,0.42802 1.60507,0 7.00882,5.13623 9.95145,9.41643 3.69167,5.51075 4.97573,9.63044 5.18974,16.74627 0.10701,4.2802 -0.0535,6.68781 -0.58852,8.29288 -0.42802,1.17705 -0.80254,2.62162 -0.80254,3.10314 0,0.5350298 -0.21401,0.9630498 -0.48152,0.9630498 -0.26752,0 -0.64203,0.64203 -0.80254,1.39106 -0.96304,3.74517 -6.68781,10.27247 -11.77054,13.53612 -4.86873,3.04964 -9.79095,4.4942102 -16.05074,4.7082202 -4.81522,0.16051 -5.83177,0 -10.16547,-1.4980702 -2.67512,-0.90954 -5.24324,-1.97959 -5.72476,-2.40761 -0.42802,-0.42802 -1.12355,-0.74903 -1.44457,-0.74903 -0.37451,0 -2.51461,-1.87259 -4.81522,-4.1732 -3.95918,-3.95918 -7.70435,-10.00496 -8.39988,-13.4291098 -0.10701,-0.64203 -0.37452,-1.39107 -0.53503,-1.65858 -0.58853,-0.96304 -0.74903,-9.36293 -0.21401,-12.57308 1.12355,-6.68781 3.31715,-10.968 8.39989,-16.58576 2.62162,-2.83563 7.97186,-6.5808 9.57694,-6.74131 0.26751,0 0.69553,-0.21401 0.96304,-0.48152 0.58853,-0.48153 4.70822,-1.71208 6.63431,-1.92609 0.69553,-0.10701 1.33756,-0.26751 1.44456,-0.37452 0.21401,-0.21401 2.46112,-0.107 8.39989,0.37452 z m 85.17592,2.03309 c 4.81522,1.49807 10.9145,6.20629 15.14119,11.61004 1.76558,2.3541 4.2267,8.18587 4.97573,11.82404 0.74904,3.85218 0.37452,14.55267 -0.53502,14.87368 -0.32102,0.10701 -0.58853,0.64203 -0.58853,1.17706 0,1.1770498 -2.46111,6.0992798 -4.11969,8.2928798 -2.35411,3.04964005 -6.84831,7.32984 -8.82791,8.34638 -1.07004,0.53503 -2.08659,1.23056 -2.2471,1.44457 -0.16051,0.26751 -1.44457,0.80254 -2.83563,1.17705 -1.44457,0.37452 -2.88913,0.96305 -3.31715,1.2840602 -0.48152,0.37452 -3.58467,0.58853 -8.07887,0.58853 -5.70234,0.62356 -8.74966,-1.3503302 -12.84059,-2.4076102 -1.33757,0 -7.65086,-4.60121 -10.32598,-7.54384995 -3.63817,-3.95918005 -6.95532,-10.48648005 -7.70435,-15.19469985 -1.71208,-10.70049 1.39106,-20.59844 8.6674,-27.87478 5.61775,-5.56425 10.27247,-7.86486 18.19083,-9.04191 4.44071,-0.64203 9.52344,-0.10701 14.44567,1.44456 z m 0.1605,99.514581 c -0.53502,8.29288 -3.95918,15.569212 -10.32597,22.043012 -6.36679,6.5273 -13.42912,10.43298 -23.70159,13.26861 -3.42416,0.96305 -5.67126,1.17706 -13.48262,1.17706 -10.27247,0.0535 -13.96414,-0.64203 -22.47103,-4.01269 -14.82019,-5.93877 -25.68118,-20.063422 -25.68118,-33.439042 v -3.42415 h 47.9382 47.99171 z"
         id="path3418"
         inkscape:connector-curvature="0"
         style="fill:#6dac20;fill-opacity:1;stroke:none;stroke-width:0.05350246"
         sodipodi:nodetypes="ccccccsssccccscscsscccscsccscscccccsccccssccscsscccsscccccsscccccccscccccscccccccccccccccccscccc" />
      <path
         d="m -423.3779,-54.167048 c -6.83624,1.81681 -19.2269,11.93909 -22.5026,18.68727 -3.70295,7.26726 -3.56054,20.24453 0.14242,27.2522498 3.56054,6.74818 10.25434,12.97727 17.66027,16.6109 8.97255,4.4122702 25.06617,4.0229502 33.8963,-0.77863 24.4965,-13.10704 24.63892,-45.8097498 0.28485,-58.7870198 -7.2635,-3.89318 -20.5087,-5.19091 -29.48124,-2.98477 z"
         id="path3420"
         inkscape:connector-curvature="0"
         style="fill:#6dac20;fill-opacity:1;stroke:none;stroke-width:0.05350246" />
      <path
         d="m -343.79288,-54.846648 c -10.94083,3.58579 -22.03796,14.05633 -25.00762,23.66628 -4.06373,13.33917 -0.1563,27.3955098 10.47195,37.5791898 7.81487,7.3150302 16.41124,10.6139702 27.82096,10.6139702 15.78607,0 30.16543,-8.1756302 36.88623,-21.0845102 4.22004,-8.1756198 4.68893,-23.0925498 0.7815,-30.6944498 -9.37786,-18.3593 -30.63434,-26.678361 -50.95302,-20.08048 z"
         id="path3422"
         inkscape:connector-curvature="0"
         style="fill:#6dac20;fill-opacity:1;stroke:none;stroke-width:0.05350246" />
      <path
         d="m -180.57447,-112.69303 c -1.39106,1.39107 -2.94263,2.78213 -3.47766,3.10315 -0.85604,0.53502 -0.90954,0.69553 -0.26751,1.49807 0.37452,0.48152 1.33756,0.85603 2.1401,0.85603 1.07005,0 2.78212,1.39107 7.43684,6.04578 l 5.99227,5.992281 v 4.01268 c 0,3.42416 0.16051,4.11969 1.28406,5.29675 0.96305,1.12355 1.33756,2.1936 1.55157,5.18973 l 0.32102,3.79868 -2.0866,2.2471 c -1.12355,1.17706 -2.46111,2.1936 -2.88913,2.1936 -1.33756,0 -1.01655,-1.92608 0.48152,-2.88913 1.12355,-0.74903 1.33756,-1.28406 1.33756,-3.69167 0,-2.35411 -0.21401,-3.10314 -1.33756,-4.11969 -1.17705,-1.12355 -1.33756,-1.65857 -1.33756,-5.29674 v -4.06619 l -6.04578,-6.04578 c -4.4942,-4.494201 -6.36679,-5.992271 -7.38334,-5.992271 -0.74903,0 -1.92608,-0.58853 -2.56811,-1.28406 -1.17706,-1.23056 -1.39107,-1.28406 -9.57694,-1.17706 -8.18588,0.0535 -8.39989,0.10701 -8.93492,1.23056 -0.37451,0.90954 -0.96304,1.23056 -2.3006,1.23056 -1.55157,0 -2.56812,0.80253 -7.97187,6.152781 -4.54771,4.49421 -6.09928,6.4203 -5.93877,7.11583 0.37452,1.28406 -0.42802,2.78213 -1.44457,2.78213 -0.90954,0 -1.17705,1.01654 -1.55157,5.99227 -0.26751,3.26365 -0.16051,3.69167 0.85604,4.2267 0.96304,0.53502 1.39106,0.26751 3.47766,-2.1401 1.76558,-2.0331 2.72863,-2.72863 3.85218,-2.72863 0.85604,0 1.97959,-0.53502 2.72862,-1.33756 1.23056,-1.33756 1.33756,-1.33756 10.7005,-1.33756 h 9.41643 l 2.62162,2.67512 c 1.81908,1.81909 3.04964,2.67512 4.01268,2.67512 1.81909,0 5.35025,3.53117 5.35025,5.40375 0,0.74904 0.58853,1.92609 1.28406,2.56812 1.01654,0.96305 1.28406,1.87259 1.55157,5.02923 0.26751,4.01269 -0.16051,5.72477 -1.49807,5.72477 -1.23056,0 -1.81908,-1.65858 -1.49807,-4.2802 0.21401,-2.0866 0.0535,-2.56812 -1.12355,-3.69167 -0.80254,-0.74904 -1.39106,-1.87259 -1.39106,-2.72863 0,-0.96304 -0.96305,-2.3006 -3.37066,-4.70821 -3.21015,-3.21015 -3.47766,-3.31716 -6.04578,-3.31716 -2.1936,0 -2.94263,-0.26751 -3.95918,-1.33756 -1.17705,-1.23055 -1.60507,-1.33756 -6.68781,-1.33756 -5.08273,0 -5.51075,0.10701 -6.6878,1.33756 -0.74904,0.74904 -1.87259,1.33756 -2.67513,1.33756 -0.80253,0 -1.92609,0.58853 -2.67512,1.33757 -0.74903,0.80253 -1.87259,1.33756 -2.72863,1.33756 -0.85603,0 -1.81908,0.37451 -2.1936,0.85604 -0.37451,0.42802 -1.23055,1.33756 -1.87258,1.92609 -0.69553,0.64203 -1.23056,1.76558 -1.23056,2.56811 0,0.96305 -0.80254,2.1936 -2.67512,4.01269 -2.51462,2.46111 -2.67512,2.83563 -2.67512,5.29674 0,2.0866 -0.26752,2.94264 -1.28406,4.01269 -1.12356,1.17705 -1.33757,1.97959 -1.44457,5.296741 -0.10701,3.58466 0,4.01268 1.28406,5.35025 1.17705,1.23055 1.44457,2.03309 1.44457,4.17319 0,2.78213 1.01654,4.4942 2.72862,4.4942 0.42802,0 3.90568,-3.15664 7.70435,-6.95532 l 6.95532,-6.95532 h 2.72863 c 2.1936,0 2.94264,-0.26751 3.95918,-1.33756 1.23056,-1.337561 1.39107,-1.337561 9.36293,-1.337561 7.97187,0 8.13238,0 9.36293,1.337561 0.69554,0.74904 1.87259,1.33756 2.62162,1.33756 1.97959,0 10.754,8.77441 10.754,10.754 0,0.74903 0.58853,1.92609 1.33756,2.62162 1.33756,1.23056 1.39106,1.55157 1.28406,6.5273 -0.10701,5.77827 0.32101,6.84831 2.67512,6.84831 1.92609,0 8.07887,6.09929 8.07887,8.07888 0,1.97959 0.96305,2.62162 4.01269,2.62162 2.2471,0 2.99614,0.26751 4.01268,1.33756 0.69553,0.74903 1.87259,1.33756 2.62162,1.33756 1.07005,0 2.46112,1.07005 5.35025,3.9591798 l 3.95918,4.01269 3.95919,-0.0535 c 3.58467,0 4.17319,0.16051 5.40375,1.33757 2.1401,2.08659 5.99228,2.14009 8.02537,0.21401 l 1.49807,-1.44457 h 9.36293 9.30943 l 7.383336,7.38334 7.32983,7.32984 v 4.0661802 c 0,3.63817 0.16051,4.17319 1.33757,5.29675 1.07004,1.01654 1.33756,1.76558 1.33756,4.01268 0,2.247101 -0.26752,2.996141 -1.33756,4.012681 -1.17706,1.12356 -1.33757,1.65858 -1.33757,5.35025 0,3.69167 -0.1605,4.2267 -1.33756,5.35025 -1.55157,1.44456 -1.87258,4.4942 -0.48152,5.02923 0.48152,0.16051 2.56812,0.32101 4.70822,0.32101 3.42415,0 4.01268,-0.1605 5.13623,-1.33756 0.74904,-0.74903 1.87259,-1.33756 2.67513,-1.33756 0.80253,0 1.92608,-0.58853 2.67512,-1.33756 0.69553,-0.74904 1.87259,-1.33756 2.67512,-1.33756 1.76558,0 2.67513,-0.90955 2.67513,-2.67513 0,-0.96304 0.85603,-2.1936 2.67512,-4.01268 1.87258,-1.81908 2.67512,-3.04964 2.67512,-4.01269 0,-0.80253 0.58853,-1.97959 1.33756,-2.67512 1.33756,-1.230551 1.33756,-1.391061 1.33756,-9.362931 0,-7.9718702 0,-8.1323702 -1.33756,-9.3629302 -0.74903,-0.69553 -1.33756,-1.87259 -1.33756,-2.62162 0,-1.97958995 -8.7744,-10.75399 -10.75399,-10.75399 -0.74904,0 -1.92609,-0.58853 -2.62162,-1.33757 -1.17706,-1.2840498 -1.60508,-1.3375598 -6.74131,-1.3375598 -4.2802,0 -5.67126,0.16051 -6.31329,0.85604 -0.48153,0.4280198 -0.85604,1.0700498 -0.85604,1.3375598 0,0.80254 -2.51462,1.12356 -3.69167,0.48153 -0.64203,-0.32102 -1.12355,-0.90955 -1.12355,-1.33757 0,-1.0165398 1.71207,-1.8725798 3.04964,-1.5515698 1.07004,0.26752 2.51461,-0.74903 2.94263,-2.03309 0.21401,-0.53503 1.92609,-0.64203 7.16933,-0.53503 6.4203,0.16051 7.00882,0.26752 8.29288,1.49807 0.74904,0.69554 1.92609,1.28406 2.67512,1.28406 1.81909,0 10.64699,8.8279098 10.64699,10.70048985 0,0.69554 0.64203,1.97959995 1.44457,2.78212995 1.33756,1.39107 1.44457,1.81909 1.33756,5.51076 -0.107,3.7451702 -0.0535,4.0126802 1.23056,4.8687202 1.71208,1.12355 1.71208,1.97959 0,3.10314 -1.17706,0.74904 -1.33756,1.28406 -1.33756,4.01269 0,4.387201 0.80253,4.494201 4.65471,0.48152 1.71208,-1.76558 4.3872,-4.49421 5.93877,-6.04578 2.24711,-2.3006 2.78213,-3.15664 2.78213,-4.6012102 0,-1.39106 0.32102,-1.97959 1.23056,-2.35411 1.17705,-0.53502 1.17705,-0.69553 1.17705,-10.43298 0,-9.7374498 0,-9.8979498 -1.17705,-10.4329798 -0.90954,-0.37452 -1.23056,-0.96304 -1.23056,-2.3006 0,-1.49807 -0.69553,-2.46112 -4.65471,-6.5273 -3.53116,-3.58467 -5.08274,-4.81523 -6.09928,-4.81523 -0.74904,0 -1.92609,-0.58852 -2.62162,-1.33756 -1.23056,-1.33756 -1.33756,-1.33756 -10.754,-1.33756 -9.89795,0 -9.52344,-0.107 -11.61003,2.40761 -0.48152,0.53503 -1.12355,0.69553 -1.81908,0.48152 -0.80254,-0.26751 -1.65858,0.32102 -3.63817,2.40762 -2.56812,2.72862 -4.2802,3.47766 -4.2802,1.87258 0,-0.42802 1.60507,-2.35411 3.58467,-4.2802 2.83563,-2.72862 3.85217,-3.42415 4.81522,-3.21014 1.07005,0.32101 1.44456,0.107 3.26365,-2.0866 0.53502,-0.64203 1.28406,-0.74903 3.21015,-0.48152 2.2471,0.26751 2.67512,0.16051 3.79867,-1.07005 1.07005,-1.12355 1.76558,-1.39106 4.06619,-1.39106 2.2471,0 2.99613,0.26751 4.01268,1.33756 1.01655,1.07005 1.76558,1.33756 4.01269,1.33756 2.2471,0 2.99613,0.26751 4.01268,1.33756 0.74903,0.74903 1.87259,1.33756 2.67512,1.33756 0.85604,0 1.87259,0.53503 2.62162,1.39107 1.17706,1.33756 1.23056,1.33756 2.24711,0.42802 0.74903,-0.69554 0.96304,-1.33757 0.69553,-2.0866 -0.16051,-0.58853 -0.37452,-3.58467 -0.42802,-6.68781 -0.0535,-5.29674 -0.10701,-5.67126 -1.23056,-6.15278 -0.90954,-0.37452 -1.23055,-0.96305 -1.23055,-2.30061 0,-1.49807 -0.58853,-2.40761 -3.47766,-5.29674 -3.47766,-3.47766 -3.47766,-3.47766 -5.88527,-3.10314 -2.19361,0.32101 -2.51462,0.21401 -3.90568,-1.28406 -1.44457,-1.60508 -1.49807,-1.60508 -6.90182,-1.55157 -5.02923,0.0535 -5.61776,0.1605 -6.68781,1.33756 -0.64203,0.69553 -1.76558,1.23055 -2.56812,1.23055 -0.80253,0 -1.92609,0.58853 -2.67512,1.33757 -0.69553,0.74903 -1.87259,1.33756 -2.56812,1.33756 -0.96304,0 -2.46111,1.12355 -5.24324,4.01268 -3.74517,3.90568 -5.56425,4.92223 -5.56425,3.15665 0,-0.42802 2.72862,-3.42416 6.04577,-6.63431 4.2802,-4.22669 6.3668,-5.885271 7.27634,-5.885271 0.74903,0 2.03309,-0.64203 2.83563,-1.44456 1.33756,-1.28406 1.92609,-1.44457 5.51075,-1.49807 2.1936,0 4.11969,-0.21401 4.3337,-0.37452 0.16051,-0.21401 0.42802,-1.60507 0.53503,-3.10314 l 0.21401,-2.72863 -4.81523,-4.86872 -4.86872,-4.81522 -2.40761,0.37451 c -2.1936,0.32102 -2.51462,0.21401 -3.85218,-1.28406 -1.81908,-2.14009 -3.90568,-2.1936 -5.35024,-0.21401 -1.01655,1.33757 -1.33757,1.49807 -3.95919,1.33757 -2.51461,-0.16051 -3.04964,0 -4.17319,1.23055 -0.69553,0.74904 -1.872576,1.33756 -2.568116,1.33756 -0.96304,0 -2.72862,1.44457 -6.5808,5.35025 -5.02923,5.13624 -6.90182,6.31329 -6.90182,4.49421 0,-0.42802 3.31716,-4.06619 7.38334,-8.02537 5.61776,-5.51076 7.65086,-7.16933 8.720896,-7.16933 1.92609,0 2.51462,-0.85604 2.56812,-3.95918 0,-2.51462 -0.107,-2.72863 -3.42415,-6.04578 -2.728626,-2.72863 -3.691666,-3.37066 -4.547706,-3.10314 -0.80254,0.26751 -1.49807,-0.10701 -2.51462,-1.28406 -1.39106,-1.60508 -1.65858,-1.65858 -5.56426,-1.65858 -2.62162,0 -4.28019,0.21401 -4.65471,0.64203 -0.32101,0.42802 -0.53502,4.01268 -0.48152,8.93491 0.0535,6.04578 -0.10701,8.34638 -0.58853,8.50689 -1.33756,0.42802 -2.2471,1.81908 -1.97959,2.94264 0.21401,0.85604 -0.26751,1.76558 -1.81908,3.42415 -1.17706,1.28406 -2.51462,2.30061 -2.94264,2.30061 -1.33756,0 -1.01655,-1.92609 0.53503,-2.94264 1.07005,-0.69553 1.28406,-1.17705 1.07005,-2.14009 -0.32102,-1.23056 -0.10701,-1.55158 2.08659,-3.37066 0.69553,-0.58853 0.80254,-2.03309 0.74904,-8.8279 l -0.0535,-8.13238 -1.60507,-1.49807 c -1.12355,-1.01654 -1.49807,-1.76558 -1.23056,-2.51461 0.26752,-0.85604 -0.64203,-2.0866 -4.3872,-5.778271 l -4.70822,-4.76172 -7.00883,-0.107 c -7.75785,-0.10701 -8.7744,0.32101 -6.36679,2.72862 1.23056,1.23056 1.28406,1.44457 1.39106,13.268611 l 0.10701,12.03806 -1.92609,1.97959 c -1.07005,1.12355 -2.30061,2.03309 -2.72863,2.03309 -1.33756,0 -1.01654,-1.92609 0.48153,-2.88913 l 1.33756,-0.85604 v -10.96802 -10.968001 l -1.33756,-0.85604 c -0.90955,-0.58853 -1.33756,-1.33756 -1.33756,-2.46111 0,-1.28406 -0.90955,-2.51462 -4.70822,-6.31329 l -4.70822,-4.70822 h -9.36293 -9.30943 z"
         id="path3424"
         inkscape:connector-curvature="0"
         style="fill:#6dac20;fill-opacity:1;stroke:none;stroke-width:0.05350246" />
      <path
         d="m -230.27825,-89.847479 c -0.74904,0.74904 -1.87259,1.33757 -2.67513,1.33757 -0.80253,0 -1.92609,0.58852 -2.67512,1.33756 -0.69553,0.74903 -1.87259,1.33756 -2.62162,1.33756 -1.07005,0 -2.83563,1.44457 -7.43684,6.04578 -5.08274,5.08273 -5.99228,6.25978 -5.88527,7.54384 0.107,1.12356 -0.26752,1.76558 -1.33757,2.56812 -1.12355,0.80254 -1.44456,1.49807 -1.44456,2.99614 0,1.55157 -0.26751,2.0866 -1.17706,2.51462 -0.96304,0.42801 -1.28406,1.07004 -1.39106,2.67512 -0.107,1.65857 -0.42802,2.3006 -1.33756,2.67512 -1.17706,0.53503 -1.17706,0.74904 -1.33756,12.947601 l -0.16051,12.41257 1.39106,0.90954 c 1.23056,0.80254 1.44457,0.80254 2.67513,0 0.90954,-0.58853 1.33756,-1.39107 1.33756,-2.35411 0,-0.90954 0.53502,-2.03309 1.33756,-2.78213 0.74903,-0.69553 1.33756,-1.87258 1.33756,-2.67512 0,-1.87259 6.15278,-8.02537 8.07887,-8.02537 0.90954,0 2.30061,-1.01655 4.65472,-3.37065 l 3.31715,-3.37066 v -4.012681 c 0,-3.63817 0.16051,-4.1732 1.33756,-5.29675 0.74904,-0.69553 1.33756,-1.87258 1.33756,-2.62162 0,-0.74903 0.64203,-1.97959 1.39107,-2.78213 1.33756,-1.39106 1.39106,-1.71207 1.33756,-6.74131 -0.10701,-5.02923 -0.0535,-5.35024 1.28406,-6.5808 1.01654,-0.96304 1.28406,-1.65857 1.07005,-2.56812 -0.21401,-0.96304 0.0535,-1.39106 1.33756,-2.14009 1.71208,-0.96305 1.97959,-1.65858 0.96304,-2.67513 -1.07005,-1.07005 -3.37065,-0.74903 -4.70821,0.69553 z"
         id="path3426"
         inkscape:connector-curvature="0"
         style="fill:#6dac20;fill-opacity:1;stroke:none;stroke-width:0.05350246" />
      <path
         d="m -203.52702,-52.395748 c -1.01655,1.07005 -1.76559,1.33756 -3.95919,1.33756 h -2.72862 l -7.38334,7.38334 c -5.61776,5.61776 -7.32984,7.65085 -7.32984,8.7209 0,0.74903 -0.58853,1.92609 -1.33756,2.62162 -1.33756,1.23056 -1.33756,1.39106 -1.33756,9.30943 v 8.07887 l 4.97573,4.9757298 c 2.72862,2.67512 5.29674,4.92222 5.77826,4.92222 1.23056,0 2.62162,-1.76558 2.62162,-3.31715 0,-0.69553 0.58853,-1.8725898 1.33756,-2.5681198 0.74904,-0.69553 1.33757,-1.87258 1.33757,-2.62162 0,-1.97959 11.44952,-13.42912 13.42911,-13.42912 0.74904,0 1.92609,-0.58852 2.62162,-1.33756 1.23056,-1.33756 1.39107,-1.33756 9.30943,-1.33756 h 8.07887 l 2.0331,-1.87258 c 1.65857,-1.55158 1.92609,-2.0331 1.49807,-2.88914 -0.32102,-0.53502 -0.90955,-1.12355 -1.39107,-1.33756 -0.58853,-0.21401 -0.80253,-1.07005 -0.80253,-3.10314 v -2.83563 l -4.70822,-4.70822 c -3.42416,-3.42416 -5.02923,-4.65471 -6.04578,-4.65471 -0.74903,0 -1.92609,-0.58853 -2.62162,-1.33756 -1.17705,-1.23056 -1.60507,-1.33757 -6.68781,-1.33757 -5.08273,0 -5.51075,0.10701 -6.6878,1.33757 z"
         id="path3428"
         inkscape:connector-curvature="0"
         style="fill:#6dac20;fill-opacity:1;stroke:none;stroke-width:0.05350246" />
      <path
         d="m -238.62464,-47.045508 c -0.58853,0.85604 -1.39106,1.33756 -2.3006,1.33756 -1.9796,0 -8.07888,6.09928 -8.07888,8.07888 0,0.74903 -0.58852,1.92608 -1.33756,2.62162 -0.74903,0.74903 -1.33756,1.87258 -1.33756,2.67512 0,0.80254 -0.58853,1.92609 -1.33756,2.67512 -1.33756,1.23056 -1.33756,1.33756 -1.33756,10.70049 0,9.3629298 0,9.4699398 1.33756,10.7004998 0.74903,0.69553 1.33756,1.87258 1.33756,2.62162 0,1.07005 1.17706,2.62162 4.70822,6.04577005 4.3872,4.44070995 4.76172,4.65471995 7.16933,4.76171995 3.37065,0.16051 4.17319,-0.58852 4.17319,-4.06618 v -2.83563 l 4.01268,-3.74518 c 2.1936,-2.08659 4.01269,-4.01268 4.01269,-4.3337 0,-0.3210098 -0.58853,-0.9630398 -1.33756,-1.4445598 -1.23056,-0.80254 -1.33756,-1.17706 -1.33756,-5.08274 0,-3.90568 -0.10701,-4.28019 -1.33757,-5.08273 -1.65857,-1.12355 -1.65857,-1.76558 0,-3.15664 1.23056,-1.01655 1.33757,-1.44457 1.39107,-6.31329 0.0535,-4.97573 0,-5.35025 -1.33756,-6.74131 -0.74904,-0.80254 -1.39107,-2.0331 -1.39107,-2.78213 0,-0.74904 -0.58852,-1.92609 -1.39106,-2.67513 -1.01655,-0.96304 -1.28406,-1.658571 -1.07005,-2.67512 0.48152,-2.62162 -1.76558,-3.53116 -3.21015,-1.28406 z"
         id="path3430"
         inkscape:connector-curvature="0"
         style="fill:#6dac20;fill-opacity:1;stroke:none;stroke-width:0.05350246" />
      <path
         d="m -265.10836,-36.559028 c -0.32101,0.64203 -1.60507,2.1401 -2.94263,3.37066 -1.71208,1.65858 -2.2471,2.51462 -2.0331,3.31715 0.21401,0.85604 -0.48152,1.87259 -2.67512,4.06619 l -2.99614,2.94263 v 9.36293 c 0,9.2559298 0,9.3629398 1.33757,10.5934898 0.74903,0.69553 1.33756,1.81909 1.33756,2.56812005 0,0.90954 1.49807,2.78212995 5.08273,6.42029995 l 5.08273,5.1897302 1.49807,-0.80253 c 1.01655,-0.5885302 1.49807,-1.3375602 1.60508,-2.5146202 0.107,-1.28406 0.85604,-2.35411 2.83563,-4.11969 2.51461,-2.2471 2.62162,-2.46111 2.62162,-5.24324 0,-2.40761 -0.21401,-3.15664 -1.33756,-4.17319 -1.33756,-1.23056 -1.33756,-1.33756 -1.33756,-10.5934898 v -9.36293 l -2.88914,-3.04964 c -2.78213,-2.88913 -2.88913,-3.15664 -2.62162,-5.24324 0.42802,-3.26365 -1.28406,-5.08273 -2.56812,-2.72863 z"
         id="path3432"
         inkscape:connector-curvature="0"
         style="fill:#6dac20;fill-opacity:1;stroke:none;stroke-width:0.05350246" />
      <path
         d="m -190.15141,-25.644518 c -1.01655,1.07005 -1.76558,1.33756 -3.95918,1.33756 h -2.72863 l -6.04578,6.04578 c -4.4942,4.4942 -5.99227,6.36679 -5.99227,7.38334 0,0.74903 -0.58853,1.9260798 -1.33756,2.6216198 -0.74904,0.74903 -1.33756,1.87258 -1.33756,2.67512 0,0.80254 -0.58853,1.92609 -1.33757,2.67512 -1.23055,1.17706 -1.33756,1.60508 -1.33756,6.68781 0,5.08273 0.10701,5.51075 1.33756,6.6878102 0.74904,0.69553 1.33757,1.87258 1.33757,2.62162 0,1.07005 1.17705,2.62162 4.70821,6.09928 4.3337,4.333701 4.92223,4.708211 6.58081,4.547711 1.65857,-0.16051 1.81908,-0.32102 1.97959,-2.086601 0.107,-1.23056 0.64203,-2.40761 1.49807,-3.15664 1.12355,-1.12356 1.28405,-1.71208 1.28405,-5.35025 0,-3.6916702 0.16051,-4.2266902 1.33757,-5.3502502 0.74903,-0.74903 1.33756,-1.87258 1.33756,-2.67512 0,-0.80254 0.58852,-1.92609 1.33756,-2.67512 0.74903,-0.69553 1.33756,-1.87258995 1.33756,-2.62161995 0,-1.97959005 11.44953,-13.42911985 13.42912,-13.42911985 0.74903,0 1.92609,-0.58853 2.62162,-1.33756 0.96304,-1.01655 1.81908,-1.33756 4.17319,-1.44457 2.62162,-0.16051 3.10314,-0.32101 3.85218,-1.60507 0.74903,-1.44457 0.74903,-1.49807 -1.60508,-3.90568 -1.60507,-1.65858 -2.83563,-2.40761 -3.74517,-2.40761 -0.80254,0 -1.97959,-0.58853 -2.67512,-1.33756 -1.23056,-1.28406 -1.49807,-1.33757 -8.02537,-1.33757 -6.5273,0 -6.79481,0.0535 -8.02537,1.33757 z"
         id="path3434"
         inkscape:connector-curvature="0"
         style="fill:#6dac20;fill-opacity:1;stroke:none;stroke-width:0.05350246" />
      <path
         d="m -171.42555,-12.268908 c -0.69553,0.74904 -1.87258,1.33756 -2.62162,1.33756 -1.97959,0 -13.42912,11.44952985 -13.42912,13.4291198 0,0.74903 -0.58852,1.92609 -1.33756,2.62162 -0.74903,0.69553 -1.33756,1.87259 -1.33756,2.62162 0,0.74904 -0.58853,1.92609 -1.33756,2.7286302 -1.23056,1.28406 -1.28406,1.65857 -1.39107,9.30942 -0.0535,7.811361 -0.0535,7.918371 1.33757,9.362941 0.74903,0.80253 1.39106,2.03309 1.39106,2.78212 0,0.90955 1.33756,2.62162 4.70822,5.99228 l 4.65471,4.65471 h 8.07887 c 7.91837,0 8.07887,0 9.30943,-1.33756 0.69553,-0.74903 1.87259,-1.33756 2.62162,-1.33756 1.97959,0 13.42912,-11.44953 13.42912,-13.42912 0,-0.74903 0.58853,-1.92609 1.33756,-2.62162 0.74903,-0.74903 1.33756,-1.872581 1.33756,-2.675121 0,-0.80254 0.58853,-1.92609 1.33756,-2.67512 1.33756,-1.23056 1.33756,-1.39107 1.33756,-9.3629302 0,-7.97187 0,-8.13237995 -1.33756,-9.36293995 -0.74903,-0.69553 -1.33756,-1.87258005 -1.33756,-2.67512005 0,-1.92609 -6.15278,-8.0253698 -8.07887,-8.0253698 -0.74903,0 -1.92609,-0.58852 -2.62162,-1.33756 -1.23056,-1.28406 -1.49807,-1.33756 -8.02537,-1.33756 -6.5273,0 -6.79481,0.0535 -8.02537,1.33756 z"
         id="path3436"
         inkscape:connector-curvature="0"
         style="fill:#6dac20;fill-opacity:1;stroke:none;stroke-width:0.05350246" />
      <path
         d="m -229.36871,-2.4779582 c -3.47766,3.47766005 -3.58467,3.69167 -3.58467,6.31329 0,2.1936 -0.26751,2.94264 -1.33756,3.95918 -1.17705,1.12356 -1.33756,1.65858 -1.33756,5.3502502 0,3.69167 0.16051,4.22669 1.33756,5.35025 1.07005,1.01654 1.33756,1.76558 1.33756,3.95918 v 2.728621 l 6.04578,6.04578 5.99228,5.99228 h 4.06618 c 4.3872,0 5.29675,-0.48153 5.29675,-2.67513 0,-0.80253 0.58852,-1.97959 1.33756,-2.67512 0.80253,-0.74903 1.33756,-1.87259 1.33756,-2.72862 0,-0.90955 0.48152,-1.71208 1.33756,-2.30061 0.74904,-0.48152 1.33756,-1.12355 1.33756,-1.44457 0,-0.32101 -1.81908,-2.2471 -4.01268,-4.333701 -3.10315,-2.88913 -4.01269,-4.06618 -4.01269,-5.18973 0,-0.85604 -0.53502,-1.9796 -1.33756,-2.72863 -1.23055,-1.17705 -1.33756,-1.60507 -1.33756,-6.6878102 v -5.40375 l -3.63817,-3.58466 c -1.97959,-1.97959 -3.95918,-3.58467 -4.4407,-3.58467 -0.42802,0 -2.40761,1.60508 -4.3872,3.63817 z"
         id="path3438"
         inkscape:connector-curvature="0"
         style="fill:#6dac20;fill-opacity:1;stroke:none;stroke-width:0.05350246" />
      <path
         d="m -138.68203,-2.2639482 c -0.48153,0.48152 -0.64204,3.74517 -0.64204,11.39603 V 19.939572 l -1.33756,1.23056 c -0.74904,0.74903 -1.33757,1.872581 -1.33757,2.675121 0,0.80254 -0.58852,1.92609 -1.33756,2.67512 -0.74903,0.69554 -1.33756,1.87259 -1.33756,2.62163 0,2.03309 -11.44953,13.42911 -13.42912,13.42911 -1.49807,0 -3.15664,1.44457 -3.15664,2.72863 0,0.42802 1.60507,2.40761 3.63817,4.3872 l 3.63816,3.58466 h 6.68781 c 6.4738,0 6.74131,-0.0535 7.97187,-1.33756 0.69554,-0.74903 1.87259,-1.33756 2.62163,-1.33756 1.97959,0 10.75399,-8.7744 10.75399,-10.75399 0,-0.74904 0.58853,-1.92609 1.33756,-2.62162 0.74904,-0.74904 1.33757,-1.87259 1.33757,-2.67513 0,-0.80253 0.58852,-1.92608 1.33756,-2.67512 1.33756,-1.23056 1.33756,-1.39106 1.33756,-9.362931 0,-7.97187 0,-8.13237 -1.33756,-9.36293 -1.07005,-1.01655 -1.33756,-1.76558 -1.33756,-4.0126802 0,-2.62163 -0.10701,-2.83564 -3.37066,-6.04578 -2.35411,-2.30060995 -3.74517,-3.31715995 -4.70822,-3.31715995 -0.74903,0 -1.92608,-0.58852 -2.62162,-1.33756005 -1.33756,-1.44456 -3.63816,-1.76558 -4.70821,-0.69553 z"
         id="path3440"
         inkscape:connector-curvature="0"
         style="fill:#6dac20;fill-opacity:1;stroke:none;stroke-width:0.05350246" />
      <path
         d="m -117.92308,-1.5684182 c -0.90954,0.96305005 -1.76558,1.33756005 -2.83563,1.23056005 -1.07005,-0.10701 -1.76558,0.16051 -2.1936,0.80254 -0.48152,0.80252995 -0.32101,1.17704995 0.90954,2.19359995 0.85604,0.69553 1.44457,1.65857 1.44457,2.51461 0,0.74904 0.58853,1.92609 1.33756,2.62162 l 1.33756,1.23056 V 21.170132 33.315193 l -1.33756,1.23055 c -0.74903,0.74904 -1.33756,1.87259 -1.33756,2.67513 0,0.80253 -0.58853,1.92609 -1.33756,2.67512 -0.80254,0.74903 -1.33756,1.87259 -1.33756,2.72863 0,1.12355 -0.69554,2.08659 -2.72863,3.85217 -3.15665,2.72863 -3.26365,4.11969 -0.37452,4.11969 1.12355,0 2.1936,0.48152 3.15665,1.39107 1.39106,1.33756 1.71208,1.39106 6.74131,1.33756 4.76172,-0.10701 5.35024,-0.21401 6.6343,-1.44457 0.74904,-0.69553 1.92609,-1.28406 2.67513,-1.28406 0.74903,0 1.92608,-0.58853 2.62162,-1.33756 0.69553,-0.74903 1.81908,-1.33756 2.46111,-1.33756 2.193596,0 2.889126,-0.58853 2.889126,-2.35411 0,-1.33756 0.58853,-2.2471 2.67513,-4.3337 1.87258,-1.81908 2.67512,-3.04964 2.67512,-4.01268 0,-0.80254 0.58853,-1.97959 1.33756,-2.67513 1.33756,-1.23055 1.33756,-1.33756 1.33756,-10.70049 0,-9.362931 0,-9.469931 -1.33756,-10.700491 -0.74903,-0.69553 -1.33756,-1.87259 -1.33756,-2.62162 0,-1.9795902 -8.774406,-10.75400015 -10.753996,-10.75400015 -0.74903,0 -1.92608,-0.58852 -2.62162,-1.33756005 -1.12355,-1.17705 -1.65857,-1.33756 -5.35024,-1.33756 -3.69167,0 -4.2267,0.10701 -5.35025,1.33756 z"
         id="path3442"
         inkscape:connector-curvature="0"
         style="fill:#6dac20;fill-opacity:1;stroke:none;stroke-width:0.05350246" />
      <path
         d="m -254.03335,3.3003118 c -0.1605,0.48152 -0.32101,1.39106 -0.32101,2.03309 0,0.64203 -0.58853,1.76558 -1.33756,2.46111 l -1.33756,1.23056 V 21.170132 33.315193 l 1.33756,1.23055 c 0.74903,0.69554 1.33756,1.87259 1.33756,2.67513 0,1.87258 6.15278,8.02537 8.02537,8.02537 0.74903,0 1.87258,0.58852 2.56812,1.33756 1.60507,1.65857 2.78212,1.23055 2.78212,-1.01655 0,-1.17705 0.42802,-2.1401 1.33756,-2.99614 1.12356,-1.01654 1.33757,-1.76558 1.33757,-4.06618 0,-2.72863 0.107,-2.88914 2.67512,-5.13624 1.44457,-1.28406 2.67512,-2.62162 2.67512,-2.94264 0,-0.37451 -0.58852,-1.07004 -1.33756,-1.55157 -0.85604,-0.58852 -1.33756,-1.39106 -1.33756,-2.3006 0,-0.85604 -0.53503,-1.97959 -1.33756,-2.72863 -1.23056,-1.177051 -1.33756,-1.605071 -1.33756,-6.687811 v -5.40374 l -2.0331,-1.9796002 c -1.23055,-1.23055 -2.56812,-1.97959 -3.37065,-1.97959 -0.90954,0 -2.1936,-0.90954 -3.95918,-2.67512 -2.0866,-2.0866 -2.99614,-2.67512 -4.3337,-2.67512 -1.07005,0 -1.81909,0.32101 -2.0331,0.85604 z"
         id="path3444"
         inkscape:connector-curvature="0"
         style="fill:#6dac20;fill-opacity:1;stroke:none;stroke-width:0.05350246" />
      <path
         d="m -275.11332,13.893792 -3.31715,3.47766 v 8.025371 c 0,6.58081 0.16051,8.18588 0.80254,8.7209 2.40761,1.9796 2.46111,2.0866 2.08659,4.65472 -0.32101,2.62162 -0.32101,2.67512 2.1936,4.81522 0.58853,0.42802 0.80254,1.17705 0.58853,1.97959 -0.26751,0.96304 0,1.44457 0.96305,2.1401 0.74903,0.42802 1.49807,1.28406 1.65857,1.87259 0.26751,0.74903 0.85604,1.01654 2.0866,1.01654 1.39106,0 2.2471,0.53503 4.2802,2.67512 2.14009,2.24711 2.72862,2.56812 3.58466,2.1401 0.74903,-0.42802 0.90954,-0.96304 0.69553,-2.03309 -0.21401,-1.12355 0.0535,-1.76558 1.07005,-2.72863 0.80254,-0.74903 1.39107,-1.87258 1.39107,-2.72862 0,-0.80254 0.58852,-1.92609 1.33756,-2.67512 2.08659,-1.9796 1.76558,-3.63817 -1.33756,-6.68781 -2.51462,-2.46111 -2.67513,-2.78213 -2.67513,-5.35025 0,-2.2471 -0.26751,-2.99614 -1.33756,-4.01268 -1.23056,-1.17706 -1.33756,-1.60508 -1.33756,-6.687811 v -5.40375 l -3.37066,-3.31715 c -4.3872,-4.3337002 -5.02923,-4.3337002 -9.36293,0.107 z"
         id="path3446"
         inkscape:connector-curvature="0"
         style="fill:#6dac20;fill-opacity:1;stroke:none;stroke-width:0.05350246" />
      <path
         d="m -52.382574,23.845253 c -1.81908,1.81909 -3.04964,2.67512 -4.01268,2.67512 -1.01655,0 -3.37065,1.9796 -10.05846,8.72091 l -8.6674,8.66739 v 4.06619 c 0,3.63817 -0.16051,4.17319 -1.33756,5.29674 -1.07005,1.01655 -1.33756,1.76559 -1.33756,4.01269 0,2.2471 -0.26752,2.99614 -1.33757,4.01268 -0.80253,0.74904 -1.33756,1.87259 -1.33756,2.72863 0,1.12355 -0.64203,2.086602 -2.67512,3.798672 -2.62162,2.24711 -3.31715,3.79868 -1.97959,4.3337 0.32101,0.10701 2.94263,0.0535 5.72476,-0.1605 2.78213,-0.26752 5.24324,-0.42802 5.40375,-0.37452 0.21401,0.0535 1.44457,-1.01655 2.78213,-2.46111 1.76558,-1.87259 2.78213,-2.51462 3.95918,-2.51462 1.07005,0 2.1401,-0.58853 3.53116,-2.033092 1.07005,-1.12356 1.97959,-2.30061 1.97959,-2.67513 0,-0.37451 0.32102,-0.64203 0.69554,-0.64203 1.33756,0 4.65471,-3.95918 4.65471,-5.56425 0,-1.12355 0.69553,-2.1401 2.67512,-4.01269 2.1936,-2.08659 2.67513,-2.83563 2.67513,-4.3872 0,-1.39106 0.26751,-1.97959 1.23055,-2.35411 1.01655,-0.48152 1.17706,-0.90954 1.17706,-3.63816 0,-2.78213 0.1605,-3.26365 1.49807,-4.2267 l 1.44456,-1.07005 v -6.79481 c 0,-7.276331 -0.26751,-8.078871 -2.67512,-8.078871 -0.96305,0 -2.1936,0.85604 -4.01269,2.675121 z"
         id="path3448"
         inkscape:connector-curvature="0"
         style="fill:#6dac20;fill-opacity:1;stroke:none;stroke-width:0.05350246" />
      <path
         d="m -204.38306,28.553473 c -1.55158,1.71208 -1.81909,2.35411 -1.81909,4.60121 0,2.1401 -0.26751,2.94264 -1.39106,4.11969 l -1.39107,1.44457 0.10701,9.25592 c 0.0535,9.09542 0.0535,9.30943 1.33756,10.64699 0.74904,0.80254 1.33756,1.97959 1.33756,2.72863 0,1.76558 3.58467,5.296742 5.40375,5.296742 0.74904,0 1.92609,0.58853 2.62162,1.33756 1.23056,1.33756 1.39107,1.33756 9.36293,1.33756 7.97187,0 8.13238,0 9.36293,-1.33756 0.69553,-0.74903 1.87259,-1.33756 2.62162,-1.33756 1.07005,0 2.83563,-1.44457 7.49035,-6.099282 5.99227,-5.99228 6.09928,-6.15278 6.09928,-8.50689 0,-1.87259 -0.37452,-2.83563 -1.49807,-4.2267 -2.1936,-2.62162 -2.78213,-2.83563 -4.2267,-1.28406 -1.76558,1.9796 -5.99227,1.9796 -7.81135,0.0535 -1.01655,-1.07005 -1.76559,-1.33756 -3.95919,-1.33756 h -2.72862 l -6.04578,-6.04578 c -4.49421,-4.49421 -5.99228,-6.36679 -5.99228,-7.38334 0,-1.76558 -0.90954,-2.62162 -2.78212,-2.62162 -0.85604,0 -1.65858,-0.37452 -1.97959,-1.01655 -1.01655,-1.87259 -2.1401,-1.76558 -4.11969,0.37452 z"
         id="path3450"
         inkscape:connector-curvature="0"
         style="fill:#6dac20;fill-opacity:1;stroke:none;stroke-width:0.05350246" />
      <path
         d="m -233.3814,36.311323 c -2.03309,2.0866 -2.2471,2.51462 -2.2471,4.97573 0,2.1936 -0.26751,2.94264 -1.33756,3.95919 -1.07005,1.01654 -1.33756,1.76558 -1.33756,4.01268 0,2.2471 0.26751,2.99614 1.33756,4.01268 1.07005,1.01655 1.33756,1.76559 1.33756,4.01269 0,2.2471 0.26751,2.99614 1.33756,4.01268 0.74904,0.69554 1.33756,1.81909 1.33756,2.46112 0,2.193602 0.58853,2.889132 2.35411,2.889132 1.17705,0 2.1401,0.42802 2.99614,1.33756 0.74903,0.74904 1.87258,1.33756 2.67512,1.33756 0.80254,0 1.92609,0.58853 2.67512,1.33756 1.01655,1.07005 1.76559,1.33757 4.01269,1.33757 2.2471,0 2.99614,-0.26752 4.01268,-1.33757 1.07005,-1.12355 1.76558,-1.33756 4.3872,-1.33756 3.79868,0 4.70822,-1.07005 2.40762,-2.88913 -0.90955,-0.69553 -1.44457,-1.712082 -1.44457,-2.514622 0,-0.74903 -0.58853,-1.92608 -1.33756,-2.62162 -1.07005,-1.01654 -1.33756,-1.76558 -1.33756,-4.01268 0,-2.2471 -0.26752,-2.99614 -1.33757,-4.01269 -1.17705,-1.12355 -1.33756,-1.65857 -1.33756,-5.35024 0,-4.01269 -0.0535,-4.11969 -2.03309,-6.04578 -1.76558,-1.76558 -2.35411,-1.97959 -4.70822,-1.97959 -2.51461,0 -2.83563,-0.16051 -5.56425,-2.94264 -1.60508,-1.60507 -3.26365,-2.94263 -3.74517,-2.94263 -0.48153,0 -1.87259,1.01655 -3.10315,2.3006 z"
         id="path3452"
         inkscape:connector-curvature="0"
         style="fill:#6dac20;fill-opacity:1;stroke:none;stroke-width:0.05350246" />
      <path
         d="m -83.360494,46.583803 c -1.23056,1.28406 -1.49807,1.33756 -8.07887,1.33756 h -6.79481 l -2.407606,2.67512 c -1.76559,1.97959 -2.78213,2.67512 -3.85218,2.67512 -0.85604,0 -1.97959,0.53503 -2.72863,1.33757 -1.12355,1.17705 -1.65857,1.33756 -5.35024,1.33756 -4.44071,0 -5.35025,0.48152 -5.35025,2.67512 0,0.80254 -0.58853,1.97959 -1.33756,2.67512 -0.74903,0.69554 -1.33756,1.87259 -1.33756,2.67513 0,0.96304 -0.85604,2.247102 -2.94264,4.280192 -1.60507,1.60508 -2.94263,3.26365 -2.94263,3.74518 0,1.33756 4.3872,5.35024 5.88527,5.35024 0.69553,0 1.92609,0.64203 2.72862,1.39107 1.39107,1.33756 1.71208,1.39106 6.74131,1.33756 4.76172,-0.10701 5.35025,-0.21401 6.63431,-1.44457 0.74903,-0.69553 1.92609,-1.28406 2.67512,-1.28406 0.74904,0 1.926086,-0.58853 2.621616,-1.33756 0.69553,-0.74903 1.87259,-1.33756 2.62162,-1.33756 1.92609,0 13.42912,-11.449532 13.42912,-13.375622 0,-0.69553 0.58853,-1.87258 1.28406,-2.62162 1.12355,-1.23055 1.28406,-2.03309 1.49807,-6.84831 0.32101,-6.74131 -0.42802,-8.02537 -2.99614,-5.24324 z"
         id="path3454"
         inkscape:connector-curvature="0"
         style="fill:#6dac20;fill-opacity:1;stroke:none;stroke-width:0.05350246" />
      <path
         d="m -253.33782,48.349383 c -0.80253,0.53502 -1.01654,1.39106 -1.01654,3.53116 0,2.30061 -0.21401,3.04964 -1.33756,4.06619 -1.17706,1.12355 -1.33756,1.65857 -1.33756,5.35024 0,3.69167 0.1605,4.226702 1.33756,5.350252 1.07005,1.01655 1.33756,1.76558 1.33756,3.95918 0,2.72863 0,2.78213 4.70821,7.43684 l 4.65472,4.65472 h 4.06619 c 4.3872,0 5.29674,-0.48152 5.29674,-2.67513 0,-0.80253 0.58853,-1.97959 1.33756,-2.67512 1.23056,-1.12355 1.33756,-1.65857 1.33756,-5.51075 v -4.2267 l -2.67512,-2.40761 c -1.97959,-1.765582 -2.67512,-2.782122 -2.67512,-3.852172 0,-0.85604 -0.53503,-1.97959 -1.33757,-2.72863 -1.07004,-1.01655 -1.33756,-1.76558 -1.33756,-4.01268 0,-3.04964 -0.64203,-4.01269 -2.67512,-4.01269 -0.80254,0 -1.92609,-0.53502 -2.62162,-1.28406 -1.44457,-1.55157 -5.45725,-2.08659 -7.06233,-0.96304 z"
         id="path3456"
         inkscape:connector-curvature="0"
         style="fill:#6dac20;fill-opacity:1;stroke:none;stroke-width:0.05350246" />
      <path
         d="m -136.64894,54.609173 -1.28406,1.39106 -10.647,-0.0535 -10.59349,-0.10701 -4.65471,4.49421 c -2.56812,2.46111 -4.65471,4.65471 -4.65471,4.975732 0,0.26751 2.08659,2.51461 4.60121,4.92222 4.4942,4.3337 4.65471,4.44071 7.27633,4.44071 2.1401,0 2.88914,0.26751 3.90568,1.33756 1.12355,1.17705 1.65858,1.33756 5.35025,1.33756 3.69167,0 4.22669,-0.16051 5.35024,-1.33756 1.01655,-1.07005 1.76559,-1.33756 3.9592,-1.33756 h 2.72862 l 5.99228,-6.04578 c 5.83177,-5.831772 5.99227,-6.045782 6.09928,-8.560392 0.1605,-2.30061 -0.0535,-2.72863 -1.92609,-4.65472 -2.0866,-2.1401 -2.1401,-2.1401 -6.15278,-2.1401 -3.69167,0 -4.2267,0.16051 -5.35025,1.33757 z"
         id="path3458"
         inkscape:connector-curvature="0"
         style="fill:#6dac20;fill-opacity:1;stroke:none;stroke-width:0.05350246" />
      <path
         d="m -270.08409,56.802773 c -0.1605,0.48152 -0.32101,3.79867 -0.32101,7.43684 0,6.848312 -0.0535,6.687812 2.46111,8.774402 0.48153,0.42802 0.74904,1.17706 0.53503,1.81909 -0.37452,1.44456 5.93877,7.86486 7.81136,7.86486 2.08659,0 2.56812,-0.96305 2.56812,-5.35025 0,-3.69167 -0.16051,-4.22669 -1.33757,-5.35024 -1.23055,-1.17706 -1.33756,-1.60508 -1.33756,-6.68781 0,-5.831772 -0.32101,-6.687812 -2.67512,-6.687812 -0.80254,0 -1.97959,-0.58853 -2.67512,-1.33756 -1.44457,-1.55157 -4.49421,-1.87259 -5.02924,-0.48152 z"
         id="path3460"
         inkscape:connector-curvature="0"
         style="fill:#6dac20;fill-opacity:1;stroke:none;stroke-width:0.05350246" />
      <path
         d="m -173.35164,69.161845 c -1.49807,0.1605 -2.62162,0.64202 -3.42415,1.55157 -1.01655,1.01654 -1.76559,1.28406 -4.01269,1.28406 -2.30061,0 -2.99614,0.21401 -4.06619,1.39106 -1.23055,1.39106 -1.39106,1.39106 -6.79481,1.17705 -4.97573,-0.21401 -5.56425,-0.1605 -6.04578,0.74904 -0.42802,0.74903 -0.21401,1.23055 0.85604,2.2471 1.07005,1.01655 1.33756,1.76558 1.33756,3.90568 0,2.1401 0.26752,2.88913 1.33757,3.90568 0.74903,0.69553 1.33756,1.87259 1.33756,2.67512 0,1.76558 0.90954,2.67513 2.67512,2.67513 0.80254,0 1.97959,0.58852 2.67512,1.33756 0.74904,0.74903 1.87259,1.33756 2.67513,1.33756 0.80253,0 1.92608,0.58853 2.67512,1.33756 1.12355,1.17706 1.65858,1.33756 5.35025,1.33756 3.69166,0 4.22669,-0.1605 5.35024,-1.33756 0.74904,-0.74903 1.87259,-1.33756 2.67512,-1.33756 0.80254,0 1.92609,-0.58853 2.67513,-1.33756 0.69553,-0.74904 1.81908,-1.33756 2.56812,-1.33756 1.76558,0 5.45725,-3.69167 5.45725,-5.51076 0,-0.85604 0.42802,-1.60507 1.01654,-1.92609 0.53503,-0.32101 1.12355,-0.96304 1.33756,-1.39106 0.42802,-1.17705 -3.26365,-4.54771 -5.02923,-4.54771 -0.96304,0 -2.56811,-1.17705 -5.61776,-4.2802 -2.3541,-2.3541 -4.3872,-4.22669 -4.5477,-4.17319 -0.16051,0.0535 -1.28406,0.16051 -2.46112,0.26752 z"
         id="path3462"
         inkscape:connector-curvature="0"
         style="fill:#6dac20;fill-opacity:1;stroke:none;stroke-width:0.05350246" />
      <path
         d="m -203.74103,70.659905 c -0.69554,0.74904 -1.81909,1.33757 -2.56812,1.33757 -0.69553,0 -1.87259,0.58852 -2.56812,1.33756 -1.23056,1.33756 -1.33756,1.33756 -10.70049,1.33756 -6.58081,0 -9.63045,0.21401 -10.05847,0.64203 -0.42802,0.42802 -0.64202,3.15664 -0.64202,8.7209 0,7.97187 0,8.13237 1.33756,9.36293 0.74903,0.69553 1.33756,1.87259 1.33756,2.67512 0,1.81909 3.53116,5.350245 5.40375,5.350245 0.74903,0 1.92609,0.58853 2.62162,1.33756 1.01654,1.07005 1.76558,1.33756 4.01268,1.33756 2.2471,0 2.99614,0.26751 4.01269,1.33756 1.65857,1.76558 3.47766,1.71208 5.67126,-0.21401 1.49807,-1.33756 2.03309,-1.55157 3.95918,-1.28406 2.1936,0.32102 2.3006,0.21401 5.93877,-3.37065 2.0331,-2.033085 3.69167,-4.066185 3.69167,-4.494205 0,-0.48152 -0.69553,-1.55157 -1.60507,-2.40761 -0.96305,-0.96304 -1.60508,-2.08659 -1.60508,-2.94263 0,-0.80254 -0.58852,-1.92609 -1.33756,-2.67513 -0.74903,-0.74903 -1.33756,-1.87258 -1.33756,-2.67512 0,-0.85604 -0.58853,-1.92609 -1.39106,-2.72862 -1.39107,-1.23056 -1.39107,-1.39107 -1.17706,-6.79482 0.21401,-4.97573 0.16051,-5.56425 -0.74903,-6.04578 -0.74904,-0.42801 -1.23056,-0.214 -2.2471,0.85604 z"
         id="path3464"
         inkscape:connector-curvature="0"
         style="fill:#6dac20;fill-opacity:1;stroke:none;stroke-width:0.05350246" />
      <path
         d="m -131.61971,76.010155 c -0.74903,1.12355 -1.28406,1.33756 -3.63817,1.33756 -2.3006,0 -3.04964,0.26751 -4.06619,1.33756 -1.17706,1.23056 -1.60508,1.33756 -6.68781,1.33756 -5.83177,0 -6.68781,0.32102 -6.68781,2.67513 0,1.01654 -1.28406,2.62162 -4.92222,6.31329 -2.67513,2.67512 -5.08274,4.92222 -5.35025,4.92222 -0.21401,0 -0.42802,0.32102 -0.42802,0.69554 0,1.12355 4.06619,4.11969 5.51075,4.11969 0.69554,0 1.81909,0.58852 2.51462,1.337555 1.23056,1.33756 1.39106,1.33756 9.36293,1.33756 7.97188,0 8.13238,0 9.36294,-1.33756 0.74903,-0.749035 1.87259,-1.337555 2.67512,-1.337555 0.80254,0 1.92609,-0.58853 2.67513,-1.33757 0.69553,-0.74903 1.87258,-1.33756 2.67512,-1.33756 1.92609,0 8.02537,-6.15278 8.02537,-8.13237 0,-0.85604 0.48152,-1.71208 1.33756,-2.2471 0.74903,-0.48153 1.33756,-1.17706 1.33756,-1.60508 0,-1.07005 -4.06619,-4.06619 -5.56425,-4.06619 -0.90955,0 -2.0331,-0.80253 -3.63817,-2.67512 -1.28406,-1.44456 -2.62162,-2.67512 -2.94264,-2.67512 -0.37451,0 -1.07005,0.58853 -1.55157,1.33756 z"
         id="path3466"
         inkscape:connector-curvature="0"
         style="fill:#6dac20;fill-opacity:1;stroke:none;stroke-width:0.05350246" />
      <path
         d="m -92.669924,77.347715 c -2.2471,2.56812 -2.40761,2.67512 -5.13623,2.67512 -2.300606,0 -3.049636,0.21401 -4.066186,1.33757 -1.12355,1.17705 -1.65858,1.33756 -5.35025,1.33756 -4.01268,0 -4.11969,0.0535 -6.04577,2.03309 -1.23056,1.23056 -1.9796,2.56812 -1.9796,3.37066 0,0.90954 -0.96304,2.2471 -2.94263,4.22669 -1.60507,1.60507 -2.94264,3.31715 -2.94264,3.79868 0,1.23055 1.71208,2.62162 3.31716,2.62162 0.69553,0 1.81908,0.53502 2.46111,1.23055 1.07005,1.123545 1.71208,1.284055 6.74131,1.391065 5.51075,0.107 5.51075,0.107 6.6343,-1.391065 0.96305,-1.33756 1.39107,-1.49807 4.226696,-1.49807 2.72862,0 3.15664,-0.1605 3.63817,-1.23055 0.37451,-0.85604 0.96304,-1.17706 2.3006,-1.17706 1.55157,0 2.56812,-0.74903 7.91837,-6.09928 5.51075,-5.51075 6.09928,-6.31329 6.09928,-8.02537 0,-1.28406 0.26751,-1.92609 0.69553,-1.92609 1.33756,0 2.56812,-1.92608 2.2471,-3.37065 -0.53502,-1.92609 -1.71208,-2.1936 -3.15664,-0.64203 -1.12356,1.17705 -1.65858,1.33756 -5.24324,1.33756 -3.74518,0 -4.11969,-0.107 -4.92223,-1.33756 -0.48152,-0.74903 -1.17706,-1.33756 -1.55157,-1.33756 -0.32102,0 -1.65858,1.23056 -2.94264,2.67512 z"
         id="path3468"
         inkscape:connector-curvature="0"
         style="fill:#6dac20;fill-opacity:1;stroke:none;stroke-width:0.05350246" />
      <path
         d="m -253.97984,80.397355 c -0.21401,0.16051 -0.37452,3.53116 -0.37452,7.43684 0,7.32984 -0.0535,7.11583 2.46111,9.25593 0.48152,0.42802 0.74904,1.17705 0.53503,1.81908 -0.37452,1.551565 3.31715,5.189735 5.24324,5.189735 1.01654,0 1.71208,0.42802 2.35411,1.60508 0.85603,1.49806 1.01654,1.55157 3.85217,1.23055 1.60508,-0.16051 4.86873,-0.32101 7.22283,-0.37452 4.01269,-0.0535 4.2802,-0.107 5.02924,-1.49806 0.80253,-1.39107 0.74903,-1.55158 -0.90955,-3.26365 -1.01654,-1.01655 -1.71207,-2.300605 -1.71207,-3.103145 0,-0.74903 -0.58853,-1.92609 -1.33757,-2.62162 -0.74903,-0.69553 -1.33756,-1.87258 -1.33756,-2.67512 0,-1.81908 -3.53116,-5.35025 -5.40375,-5.35025 -0.74903,0 -1.92608,-0.58852 -2.62162,-1.33756 -1.01654,-1.12355 -1.76558,-1.33756 -4.06618,-1.33756 -2.72863,0 -2.88914,-0.107 -5.13624,-2.67512 -2.1936,-2.56812 -3.04964,-3.10314 -3.79867,-2.30061 z"
         id="path3470"
         inkscape:connector-curvature="0"
         style="fill:#6dac20;fill-opacity:1;stroke:none;stroke-width:0.05350246" />
      <path
         d="m -168.96444,97.357635 c -1.23055,1.39107 -1.28405,1.39107 -10.53998,1.39107 h -9.30943 l -4.54771,4.494195 c -2.51461,2.51462 -4.54771,4.76172 -4.54771,4.97573 0,1.07005 6.58081,6.5808 7.81136,6.5808 0.69553,0 1.87259,0.64203 2.67513,1.39107 1.44456,1.39106 1.60507,1.39106 8.07887,1.33756 6.20628,-0.10701 6.6343,-0.16051 7.97186,-1.39106 0.74904,-0.74904 1.92609,-1.33757 2.67513,-1.33757 0.96304,0 2.67512,-1.39106 6.25978,-4.97573 2.67513,-2.72862 4.92223,-5.29674 4.92223,-5.77826 0,-1.23056 -1.76558,-2.62162 -3.31715,-2.62162 -0.96305,0 -2.0331,-0.69553 -3.47766,-2.300605 -2.83563,-3.21014 -3.15665,-3.31715 -4.65472,-1.76558 z"
         id="path3472"
         inkscape:connector-curvature="0"
         style="fill:#6dac20;fill-opacity:1;stroke:none;stroke-width:0.05350246" />
      <path
         d="m -128.62357,100.08626 c -0.74904,0.74903 -1.87259,1.33756 -2.67512,1.33756 -0.80254,0 -1.92609,0.58853 -2.67513,1.33756 -1.23055,1.33756 -1.39106,1.33756 -9.30943,1.33756 h -8.07888 l -4.97573,4.97573 c -2.67512,2.72863 -4.92222,5.29674 -4.92222,5.77827 0,1.23055 1.76558,2.62162 3.31715,2.62162 0.74904,0 1.87259,0.58852 2.62162,1.39106 1.12355,1.23056 1.55157,1.33756 3.85218,1.01655 2.40761,-0.26751 2.67512,-0.21401 4.01268,1.33756 1.33756,1.55157 1.60508,1.60507 5.51076,1.60507 3.90569,0 4.2267,-0.107 5.18975,-1.49807 0.96304,-1.28406 1.44456,-1.44456 4.22669,-1.44456 2.72863,0 3.15664,-0.16051 3.63817,-1.23056 0.37451,-0.85604 0.96304,-1.17705 2.3006,-1.17705 1.60508,0 2.46112,-0.64203 6.84832,-5.08274 2.78213,-2.78212 5.02923,-5.29674 5.02923,-5.61776 0,-0.32101 -1.01655,-1.65857 -2.1936,-2.94263 -1.60508,-1.71208 -2.62162,-2.40761 -3.69167,-2.40761 -0.80254,0 -1.92609,-0.53503 -2.67512,-1.33756 -0.74904,-0.749035 -1.87259,-1.337555 -2.67513,-1.337555 -0.80253,0 -1.92609,0.58852 -2.67512,1.337555 z"
         id="path3474"
         inkscape:connector-curvature="0"
         style="fill:#6dac20;fill-opacity:1;stroke:none;stroke-width:0.05350246" />
      <path
         d="m -219.36375,107.30909 c -0.37452,0.37452 -0.48153,2.1936 -0.32102,4.70822 l 0.26751,4.11969 4.70822,4.70821 c 3.79868,3.74517 4.97573,4.65472 5.83177,4.3872 0.80254,-0.26751 1.49807,0.10701 2.51461,1.28406 1.39107,1.60508 1.65858,1.65858 5.56426,1.65858 3.90568,0 4.22669,-0.10701 5.18974,-1.44457 0.74903,-1.07005 1.49807,-1.44456 2.51461,-1.33756 1.49807,0.10701 5.61776,-2.72862 5.61776,-3.90568 0,-1.01655 -4.11969,-4.01268 -5.45725,-4.01268 -1.71208,0 -5.24324,-3.63817 -5.24324,-5.35025 0,-1.55157 -0.21401,-1.87259 -2.51461,-3.95918 l -1.71208,-1.49807 -1.33756,1.44457 c -1.28406,1.39106 -1.55158,1.44456 -6.5273,1.39106 -4.81523,-0.0535 -5.24325,-0.107 -6.4203,-1.39106 -1.33756,-1.49807 -1.87259,-1.60508 -2.67512,-0.80254 z"
         id="path3476"
         inkscape:connector-curvature="0"
         style="fill:#6dac20;fill-opacity:1;stroke:none;stroke-width:0.05350246" />
      <path
         d="m -240.55073,110.35873 c -0.53502,0.64203 -0.26751,1.12355 1.49807,2.56812 1.28406,1.12355 2.67512,1.81908 3.63817,1.87258 1.12355,0 2.1401,0.69554 4.01268,2.67513 2.35411,2.51461 2.62162,2.62162 5.13624,2.62162 1.49807,-0.0535 2.99614,-0.32102 3.37065,-0.58853 1.07005,-0.90954 0.74904,-3.37065 -0.64202,-4.70822 -0.85604,-0.74903 -1.39107,-1.92608 -1.49807,-3.15664 l -0.16051,-1.92609 -7.32984,-0.0535 c -5.88527,-0.0535 -7.49034,0.0535 -8.02537,0.69553 z"
         id="path3478"
         inkscape:connector-curvature="0"
         style="fill:#6dac20;fill-opacity:1;stroke:none;stroke-width:0.05350246" />
      <path
         d="m -168.75043,118.81212 c -1.17705,1.23055 -1.60507,1.33756 -6.6878,1.33756 h -5.40375 l -3.31715,3.37065 c -2.56812,2.62163 -3.31716,3.69167 -3.21015,4.70822 0.32101,2.0866 0.90954,2.62162 2.99614,2.62162 1.55157,0 2.08659,0.26751 2.51461,1.17706 0.53503,1.17705 0.85604,1.23055 7.43684,1.39106 l 6.95532,0.16051 1.44457,-1.65858 c 1.17705,-1.28406 1.81908,-1.55157 2.83563,-1.28406 1.01655,0.21401 1.49807,0 2.1936,-1.07005 0.69553,-1.01654 1.39106,-1.39106 2.72863,-1.39106 1.23055,0 2.03309,-0.37452 2.56811,-1.17706 1.17706,-1.65857 1.12356,-1.76558 -1.33756,-4.4407 -1.60507,-1.71208 -2.62162,-2.40761 -3.69167,-2.40761 -0.80253,0 -1.92609,-0.53502 -2.67512,-1.33756 -0.74903,-0.74904 -1.87259,-1.33756 -2.67512,-1.33756 -0.80254,0 -1.92609,0.58852 -2.67513,1.33756 z"
         id="path3480"
         inkscape:connector-curvature="0"
         style="fill:#6dac20;fill-opacity:1;stroke:none;stroke-width:0.05350246" />
      <g
         id="g4"
         transform="matrix(0.6041671,0,0,0.4915641,-329.24983,-46.741628)"
         style="opacity:0.91500005;fill:#000000;fill-opacity:1;stroke:none">
        <g
           id="g6"
           style="fill:#000000;fill-opacity:1">
          <path
             d="m 107.12303,-21.467766 c 0.87242,9.78603 -2.12808,15.3313798 -2.01714,24.2829698 -13.09734,6.23631 -13.97279,30.6771202 -19.1629,48.5659402 -3.74081,12.89316 -8.16239,27.93756 -18.15433,34.21692 -31.61375,19.868986 -83.3536,11.7055 -102.87454,-14.34903 -4.83712,-6.45596 -10.98237,-18.83696 -15.12861,-28.69806 -6.39637,-15.20997 -7.07212,-37.8770202 -25.21435,-29.80183 -6.04639,2.691 -12.40243,26.2521 -17.14575,36.42446 -5.32528,11.41962 -13.10642,25.97064 -20.17148,32.00937 -20.93698,17.89324 -73.86493,21.228836 -95.81452,1.10378 -19.52196,-17.89987 -12.44177,-64.27262 -33.28294,-80.5753202 -0.16944,-8.27608 -2.82501,-13.8324698 -2.01714,-23.1791998 34.66669,-11.59402 87.10145,-6.48797 123.04602,1.10377 17.68634,3.73516 34.50834,11.9637798 53.45441,11.0377098 13.56532,-0.66336 27.80739,-6.0961298 41.35153,-8.8301698 41.66014,-8.41074 85.13069,-13.09625 133.13174,-3.31131 z"
             id="path8"
             inkscape:connector-curvature="0"
             style="clip-rule:evenodd;fill:#000000;fill-opacity:1;fill-rule:evenodd" />
        </g>
      </g>
    </g>
  </g>
</svg>
